<svg id="Capa_1" data-name="Capa 1" xmlns="http://www.w3.org/2000/svg" xmlns:xlink="http://www.w3.org/1999/xlink" viewBox="0 0 512 512"><defs><style>.cls-1{fill-rule:evenodd;fill:url(#linear-gradient);}</style><linearGradient id="linear-gradient" x1="57.09" y1="435.71" x2="496.03" y2="35.9" gradientUnits="userSpaceOnUse"><stop offset="0" stop-color="#c580ff"/><stop offset="0.61" stop-color="#9a49de"/><stop offset="1" stop-color="#7c24c8"/></linearGradient></defs><path class="cls-1" d="M126.46,381.6V321.87l57.65-37.75a16.71,16.71,0,1,1,3.33,20.28L145.2,332.07v49.54a16.72,16.72,0,1,1-26.1,13.85,16.81,16.81,0,0,1,7.37-13.86M314.22,511.36,256,483.17,196.46,512l-61.79-37.67v0c-5.23-3.26-10.5-6.45-15.76-9.66l.13-.08L67.92,432.79l-.14-69.05L14.89,330.93q-.32-73.69-.56-147.39l53-34.12V76.82q35.16-21.34,70.25-42.76l.12.08L196.59,0,256,37,315.41,0,374.3,34.14l.11-.08q35.1,21.4,70.25,42.76v72.6l53,34.12q-.33,73.68-.56,147.39l-52.89,32.81-.14,69.05L393,464.62l.13.08c-5.26,3.21-10.53,6.4-15.76,9.66v0L315.54,512Zm71.31-188V381.6a16.73,16.73,0,1,1-18.74,0V332.07L324.54,304.4a16.73,16.73,0,1,1-2.5-26.48,17,17,0,0,1,5.84,6.2l57.65,37.75Zm-14-82.62a16.43,16.43,0,0,1,4.54-.63A16.72,16.72,0,1,1,359.37,258l-48-27.71L312.14,98a16.73,16.73,0,0,1,9.45-30.53,16.36,16.36,0,0,1,3.68.42,15.94,15.94,0,0,1,2,.58l30.46-22.23-42-24.38L265.4,53.7V375.93l12.8-8.65a16.72,16.72,0,1,1,16.64,18.39,17,17,0,0,1-4.79-.7,17.29,17.29,0,0,1-2.79-1.12L265.4,398.61v68.24l49.11,23.79L356.6,465l-36.21-21.26a17.58,17.58,0,0,1-2.71,1,17,17,0,0,1-4.49.62,16.73,16.73,0,1,1,16.69-17.8l44.83,26.31,50.65-31.55.24-119a16.73,16.73,0,1,1,18.74,0l-.08,38.3,34.15-21.19.48-126.69-44.1-28.38-43,22.94a16.72,16.72,0,1,1-16.62-18.48,17,17,0,0,1,4.8.7,16.57,16.57,0,0,1,3,1.24l42.88-22.87V87.34L375.32,56.58l-37,27,0,.6a16.76,16.76,0,0,1-7.44,13.9l-.69,121.38,38.58,22.27A16.55,16.55,0,0,1,371.52,240.71Zm-235.59-.63a17,17,0,0,1,7.3,1.67l38.57-22.27L181.12,98.1a16.76,16.76,0,0,1-7.44-13.9v-.61l-37-27L86.16,87.34v61.59L129,171.8a17.54,17.54,0,0,1,3-1.24,17.06,17.06,0,0,1,4.81-.7,16.72,16.72,0,1,1-16.63,18.48l-43-22.94L33.1,193.78l.49,126.69,34.14,21.19-.07-38.3a16.75,16.75,0,1,1,18.73,0l.24,119,50.66,31.55,44.82-26.31a16.72,16.72,0,1,1,16.7,17.8,16.89,16.89,0,0,1-4.49-.62,17.32,17.32,0,0,1-2.72-1L155.39,465l42.09,25.66,49.12-23.79V398.61l-21.86-14.76a17.4,17.4,0,0,1-2.8,1.12,16.72,16.72,0,1,1,11.86-17.69l12.8,8.65V53.7L196.3,21.86l-42,24.38,30.47,22.23a15.79,15.79,0,0,1,2-.58,16.64,16.64,0,0,1,15.51,4.48A16.73,16.73,0,0,1,199.86,98l.74,132.29-48,27.71a16.73,16.73,0,1,1-16.69-17.92Z"/></svg>