<svg id="Capa_1" data-name="Capa 1" xmlns="http://www.w3.org/2000/svg" viewBox="0 0 512 512"><defs><style>.cls-1{fill:#e1e6f0;}.cls-2{fill:#cfd7e6;}.cls-3{fill:#f3f5f9;}.cls-4{fill:#7c24c8;}.cls-5{fill:#6207ad;}.cls-6{fill:#c580ff;}.cls-7{fill:#b362f7;}</style></defs><path class="cls-1" d="M256,420H181v92H331V420Z"/><path class="cls-2" d="M256,420h75v92H256Z"/><path class="cls-2" d="M421,330H391V210h30a60,60,0,0,1,0,120Z"/><path class="cls-1" d="M121,330H91a60,60,0,0,1,0-120h30Z"/><path class="cls-3" d="M421,165c0-64-36.66-119.42-90-146.79L316,30,301,6.4A164,164,0,0,0,256,0c-5.06,0-10.05.31-15,.76L226,21.21,211,6.4A165.52,165.52,0,0,0,109.21,90l20.58,15L97.4,120a163.39,163.39,0,0,0-5.64,30l13.17,15L91,180V285c0,91,74,165,165,165s165-74,165-165V210l-15-15,15-15Z"/><path class="cls-1" d="M421,285V210l-15-15,15-15V165c0-64-36.66-119.42-90-146.79L316,30,301,6.4A164,164,0,0,0,256,0V450C347,450,421,376,421,285Z"/><path class="cls-4" d="M151,240h60v30H151Z"/><path class="cls-5" d="M301,240h60v30H301Z"/><path class="cls-6" d="M91.76,150c-.45,4.95-.76,9.94-.76,15v15h43.93l25.61,25.6,21.21-21.21L147.35,150Z"/><path class="cls-6" d="M292.21,120,256,83.79l-15-15V.76A163.39,163.39,0,0,0,211,6.4V81.21l45,45L279.79,150H331V120Z"/><path class="cls-6" d="M256,173.79,172.21,90h-63A164.15,164.15,0,0,0,97.4,120h62.39l90,90H301V180H262.21Z"/><path class="cls-7" d="M331,150V120H292.21L256,83.79v42.42L279.79,150Z"/><path class="cls-7" d="M301,180H262.21L256,173.79V210h45Z"/><path class="cls-4" d="M256,360H211v30h90V360Z"/><path class="cls-5" d="M256,360h45v30H256Z"/><path class="cls-7" d="M331,90V18.21A164.15,164.15,0,0,0,301,6.4V90Z"/><path class="cls-2" d="M346,180h75v30H346Z"/></svg>